<svg xmlns="http://www.w3.org/2000/svg" xmlns:xlink="http://www.w3.org/1999/xlink" xmlns:lucid="lucid" width="2147" height="1256"><g transform="translate(-636 -1522)" lucid:page-tab-id="0_0"><path d="M0 0h2941.53v3436.17H0z" fill="#fff"/><path d="M1512.8 2414a5 5 0 0 1 5-5h284.4a5 5 0 0 1 5 5v139a5 5 0 0 1-5 5h-284.4a5 5 0 0 1-5-5z" fill="#fff"/><path d="M1512.8 2486v38h294.4v-38" fill="#e6e6e6"/><path d="M1512.8 2449v-35a5 5 0 0 1 5-5h284.4a5 5 0 0 1 5 5v35" fill="#ccc"/><path d="M1512.8 2414a5 5 0 0 1 5-5h284.4a5 5 0 0 1 5 5v139a5 5 0 0 1-5 5h-284.4a5 5 0 0 1-5-5zM1512.8 2449h294.4M1647.64 2449v109" stroke="#333" stroke-width="2" fill="none"/><use xlink:href="#a" transform="matrix(1,0,0,1,1522.8000000000002,2409.0143430465287) translate(59.08723958333333 24.666666666666668)"/><use xlink:href="#b" transform="matrix(1,0,0,1,1517.8000000000002,2451.5143430465287) translate(30.343749999999993 23.291666666666668)"/><use xlink:href="#c" transform="matrix(1,0,0,1,1652.6424429405724,2451.5143430465287) translate(0 22.295833333333334)"/><use xlink:href="#d" transform="matrix(1,0,0,1,1652.6424429405724,2451.5143430465287) translate(70.70833333333334 22.295833333333334)"/><use xlink:href="#e" transform="matrix(1,0,0,1,1517.8000000000002,2488.5143430465287) translate(12.546875 23.291666666666668)"/><use xlink:href="#c" transform="matrix(1,0,0,1,1652.6424429405724,2488.5143430465287) translate(0 22.295833333333334)"/><use xlink:href="#d" transform="matrix(1,0,0,1,1652.6424429405724,2488.5143430465287) translate(70.70833333333334 22.295833333333334)"/><use xlink:href="#f" transform="matrix(1,0,0,1,1517.8000000000002,2525.5143430465287) translate(24.265624999999993 22.291666666666668)"/><use xlink:href="#g" transform="matrix(1,0,0,1,1652.6424429405724,2525.5143430465287) translate(0 22.291666666666668)"/><path d="M816.5 1756.37a5 5 0 0 1 5-5h284.4a5 5 0 0 1 4.98 5v226a5 5 0 0 1-5 5H821.5a5 5 0 0 1-5-5z" fill="#fff"/><path d="M816.5 1827.37v33h294.4l-.02-33M816.5 1891.37v33h294.4l-.02-33M816.5 1955.37v27a5 5 0 0 0 5 5h284.4a5 5 0 0 0 4.98-5v-27" fill="#e6e6e6"/><path d="M816.5 1791.37v-35a5 5 0 0 1 5-5h284.4a5 5 0 0 1 4.98 5v35" fill="#ccc"/><path d="M816.5 1756.37a5 5 0 0 1 5-5h284.4a5 5 0 0 1 4.98 5v226a5 5 0 0 1-5 5H821.5a5 5 0 0 1-5-5zM816.5 1791.37h294.4M951.33 1791.37v196" stroke="#333" stroke-width="2" fill="none"/><use xlink:href="#h" transform="matrix(1,0,0,1,826.4852868289295,1751.3681381942372) translate(113.18148148148148 23.733333333333334)"/><use xlink:href="#i" transform="matrix(1,0,0,1,821.4852868289295,1793.8681381942372) translate(55.266666666666666 19.233333333333334)"/><use xlink:href="#j" transform="matrix(1,0,0,1,956.3277297695017,1793.8681381942372) translate(0 19.766666666666666)"/><use xlink:href="#k" transform="matrix(1,0,0,1,956.3277297695017,1793.8681381942372) translate(70.9925925925926 19.766666666666666)"/><use xlink:href="#l" transform="matrix(1,0,0,1,821.4852868289295,1829.8681381942372) translate(21.07037037037037 17.233333333333334)"/><use xlink:href="#m" transform="matrix(1,0,0,1,956.3277297695017,1829.8681381942372) translate(0 17.1)"/><use xlink:href="#n" transform="matrix(1,0,0,1,821.4852868289295,1861.8681381942372) translate(22.62592592592592 17.233333333333334)"/><use xlink:href="#m" transform="matrix(1,0,0,1,956.3277297695017,1861.8681381942372) translate(0 17.1)"/><use xlink:href="#o" transform="matrix(1,0,0,1,821.4852868289295,1893.8681381942372) translate(19.02222222222222 17.233333333333334)"/><use xlink:href="#m" transform="matrix(1,0,0,1,956.3277297695017,1893.8681381942372) translate(0 17.1)"/><use xlink:href="#p" transform="matrix(1,0,0,1,821.4852868289295,1925.8681381942372) translate(19.514814814814812 17.233333333333334)"/><use xlink:href="#m" transform="matrix(1,0,0,1,956.3277297695017,1925.8681381942372) translate(0 17.1)"/><use xlink:href="#q" transform="matrix(1,0,0,1,821.4852868289295,1957.8681381942372) translate(40.28148148148148 17.233333333333334)"/><use xlink:href="#m" transform="matrix(1,0,0,1,956.3277297695017,1957.8681381942372) translate(0 17.1)"/><path d="M2209.1 2416.5a5 5 0 0 1 5-5h284.4a5 5 0 0 1 5 5v169a5 5 0 0 1-5 5h-284.4a5 5 0 0 1-5-5z" fill="#fff"/><path d="M2209.1 2488.5v33h294.4v-33M2209.1 2555.5v30a5 5 0 0 0 5 5h284.4a5 5 0 0 0 5-5v-30" fill="#e6e6e6"/><path d="M2209.1 2451.5v-35a5 5 0 0 1 5-5h284.4a5 5 0 0 1 5 5v35" fill="#ccc"/><path d="M2209.1 2416.5a5 5 0 0 1 5-5h284.4a5 5 0 0 1 5 5v169a5 5 0 0 1-5 5h-284.4a5 5 0 0 1-5-5zM2209.1 2451.5h294.4M2343.96 2451.5v139" stroke="#333" stroke-width="2" fill="none"/><use xlink:href="#r" transform="matrix(1,0,0,1,2219.114713171071,2411.5143430465287) translate(92.69270833333331 24.666666666666668)"/><use xlink:href="#s" transform="matrix(1,0,0,1,2214.114713171071,2454.0143430465287) translate(55.525 19.6)"/><use xlink:href="#c" transform="matrix(1,0,0,1,2348.957156111643,2454.0143430465287) translate(0 22.295833333333334)"/><use xlink:href="#t" transform="matrix(1,0,0,1,2348.957156111643,2454.0143430465287) translate(70.70833333333334 22.295833333333334)"/><use xlink:href="#u" transform="matrix(1,0,0,1,2214.114713171071,2491.0143430465287) translate(40.025 17.1)"/><use xlink:href="#v" transform="matrix(1,0,0,1,2348.957156111643,2491.0143430465287) translate(0 17.1)"/><use xlink:href="#w" transform="matrix(1,0,0,1,2214.114713171071,2523.0143430465287) translate(39.08333333333333 22.291666666666668)"/><use xlink:href="#x" transform="matrix(1,0,0,1,2348.957156111643,2523.0143430465287) translate(0 18.6)"/><use xlink:href="#y" transform="matrix(1,0,0,1,2214.114713171071,2558.0143430465287) translate(9.526041666666664 22.291666666666668)"/><use xlink:href="#z" transform="matrix(1,0,0,1,2348.957156111643,2558.0143430465287) translate(0 18.6)"/><path d="M2209.1 1755a5 5 0 0 1 5-5h284.4a5 5 0 0 1 5 5v170a5 5 0 0 1-5 5h-284.4a5 5 0 0 1-5-5z" fill="#fff"/><path d="M2209.1 1825v36h294.4v-36M2209.1 1895v30a5 5 0 0 0 5 5h284.4a5 5 0 0 0 5-5v-30" fill="#e6e6e6"/><path d="M2209.1 1790v-35a5 5 0 0 1 5-5h284.4a5 5 0 0 1 5 5v35" fill="#ccc"/><path d="M2209.1 1755a5 5 0 0 1 5-5h284.4a5 5 0 0 1 5 5v170a5 5 0 0 1-5 5h-284.4a5 5 0 0 1-5-5zM2209.1 1790h294.4M2343.96 1790v140" stroke="#333" stroke-width="2" fill="none"/><use xlink:href="#A" transform="matrix(1,0,0,1,2219.114713171071,1750.0040031372869) translate(53.486328125 24.666666666666668)"/><use xlink:href="#B" transform="matrix(1,0,0,1,2214.114713171071,1792.5040031372869) translate(24.213541666666664 22.291666666666668)"/><use xlink:href="#C" transform="matrix(1,0,0,1,2348.957156111643,1792.5040031372869) translate(0 22.291666666666668)"/><use xlink:href="#D" transform="matrix(1,0,0,1,2348.957156111643,1792.5040031372869) translate(70.98958333333334 22.291666666666668)"/><use xlink:href="#e" transform="matrix(1,0,0,1,2214.114713171071,1827.5040031372869) translate(12.546875 22.291666666666668)"/><use xlink:href="#C" transform="matrix(1,0,0,1,2348.957156111643,1827.5040031372869) translate(0 22.291666666666668)"/><use xlink:href="#D" transform="matrix(1,0,0,1,2348.957156111643,1827.5040031372869) translate(70.98958333333334 22.291666666666668)"/><use xlink:href="#f" transform="matrix(1,0,0,1,2214.114713171071,1862.5040031372869) translate(24.265624999999993 22.291666666666668)"/><use xlink:href="#g" transform="matrix(1,0,0,1,2348.957156111643,1862.5040031372869) translate(0 22.291666666666668)"/><use xlink:href="#w" transform="matrix(1,0,0,1,2214.114713171071,1897.5040031372869) translate(39.08333333333333 22.291666666666668)"/><use xlink:href="#E" transform="matrix(1,0,0,1,2348.957156111643,1897.5040031372869) translate(0 22.291666666666668)"/><path d="M816.5 2417a5 5 0 0 1 5-5h284.4a5 5 0 0 1 4.98 5v100a5 5 0 0 1-5 5H821.5a5 5 0 0 1-5-5z" fill="#fff"/><path d="M816.5 2487v30a5 5 0 0 0 5 5h284.4a5 5 0 0 0 4.98-5v-30" fill="#e6e6e6"/><path d="M816.5 2452v-35a5 5 0 0 1 5-5h284.4a5 5 0 0 1 4.98 5v35" fill="#ccc"/><path d="M816.5 2417a5 5 0 0 1 5-5h284.4a5 5 0 0 1 4.98 5v100a5 5 0 0 1-5 5H821.5a5 5 0 0 1-5-5zM816.5 2452h294.4M951.33 2452v70" stroke="#333" stroke-width="2" fill="none"/><use xlink:href="#F" transform="matrix(1,0,0,1,826.4852868289295,2412.01434304653) translate(109.49544270833333 24.666666666666668)"/><use xlink:href="#G" transform="matrix(1,0,0,1,821.4852868289295,2454.51434304653) translate(53.89583333333333 22.291666666666668)"/><use xlink:href="#C" transform="matrix(1,0,0,1,956.3277297695017,2454.51434304653) translate(0 22.291666666666668)"/><use xlink:href="#H" transform="matrix(1,0,0,1,956.3277297695017,2454.51434304653) translate(70.98958333333334 22.291666666666668)"/><use xlink:href="#I" transform="matrix(1,0,0,1,821.4852868289295,2489.51434304653) translate(28.44270833333333 22.291666666666668)"/><use xlink:href="#C" transform="matrix(1,0,0,1,956.3277297695017,2489.51434304653) translate(0 22.291666666666668)"/><use xlink:href="#D" transform="matrix(1,0,0,1,956.3277297695017,2489.51434304653) translate(70.98958333333334 22.291666666666668)"/><path d="M1512.8 1756.37a5 5 0 0 1 5-5h284.4a5 5 0 0 1 5 5v205a5 5 0 0 1-5 5h-284.4a5 5 0 0 1-5-5z" fill="#fff"/><path d="M1512.8 1826.37v36h294.4v-36M1512.8 1896.37v36h294.4v-36" fill="#e6e6e6"/><path d="M1512.8 1791.37v-35a5 5 0 0 1 5-5h284.4a5 5 0 0 1 5 5v35" fill="#ccc"/><path d="M1512.8 1756.37a5 5 0 0 1 5-5h284.4a5 5 0 0 1 5 5v205a5 5 0 0 1-5 5h-284.4a5 5 0 0 1-5-5zM1512.8 1791.37h294.4M1647.64 1791.37v175" stroke="#333" stroke-width="2" fill="none"/><use xlink:href="#J" transform="matrix(1,0,0,1,1522.8000000000002,1751.3681381942372) translate(103.89453125 24.666666666666668)"/><use xlink:href="#K" transform="matrix(1,0,0,1,1517.8000000000002,1793.8681381942372) translate(55.525 18.6)"/><use xlink:href="#C" transform="matrix(1,0,0,1,1652.6424429405724,1793.8681381942372) translate(0 22.291666666666668)"/><use xlink:href="#H" transform="matrix(1,0,0,1,1652.6424429405724,1793.8681381942372) translate(70.98958333333334 22.291666666666668)"/><use xlink:href="#I" transform="matrix(1,0,0,1,1517.8000000000002,1828.8681381942372) translate(28.44270833333333 22.291666666666668)"/><use xlink:href="#C" transform="matrix(1,0,0,1,1652.6424429405724,1828.8681381942372) translate(0 22.291666666666668)"/><use xlink:href="#D" transform="matrix(1,0,0,1,1652.6424429405724,1828.8681381942372) translate(70.98958333333334 22.291666666666668)"/><use xlink:href="#L" transform="matrix(1,0,0,1,1517.8000000000002,1863.8681381942372) translate(32.84895833333333 22.291666666666668)"/><use xlink:href="#M" transform="matrix(1,0,0,1,1652.6424429405724,1863.8681381942372) translate(0 18.6)"/><use xlink:href="#N" transform="matrix(1,0,0,1,1517.8000000000002,1898.8681381942372) translate(41.42708333333333 22.291666666666668)"/><use xlink:href="#O" transform="matrix(1,0,0,1,1652.6424429405724,1898.8681381942372) translate(0 22.291666666666668)"/><use xlink:href="#P" transform="matrix(1,0,0,1,1517.8000000000002,1933.8681381942372) translate(12.932291666666664 22.291666666666668)"/><use xlink:href="#x" transform="matrix(1,0,0,1,1652.6424429405724,1933.8681381942372) translate(0 18.6)"/><path d="M963.68 2008.37v383.22" stroke="#333" fill="none"/><path d="M953.68 2008.37h20M963.68 1988.37v20" stroke="#333" fill="#fff"/><path d="M953.68 2410.8l10-20 10 20" stroke="#333" fill="#fff" fill-opacity="0"/><path d="M963.68 2410.8v-20" stroke="#333" fill="#fff"/><path d="M1131.88 1843.98h179.9a.05.05 0 0 0 .06-.06.05.05 0 0 1 .06-.05h180.5" stroke="#333" fill="none"/><path d="M1131.88 1853.98v-20M1111.88 1843.98h20" stroke="#333" fill="#fff"/><path d="M1511.58 1853.87l-20-10 20-10" stroke="#333" fill="#fff" fill-opacity="0"/><path d="M1511.58 1843.87h-20" stroke="#333" fill="#fff"/><path d="M1131.88 2504.5h360.5" stroke="#333" fill="none"/><path d="M1131.88 2514.5v-20M1111.88 2504.5h20" stroke="#333" fill="#fff"/><path d="M1511.58 2514.5l-20-10 20-10" stroke="#333" fill="#fff" fill-opacity="0"/><path d="M1511.58 2504.5h-20" stroke="#333" fill="#fff"/><path d="M1828.2 1843.87h179.27a.68.68 0 0 0 .7-.68.68.68 0 0 1 .67-.7h179.86" stroke="#333" fill="none"/><path d="M1828.2 1853.87v-20M1808.2 1843.87h20" stroke="#333" fill="#fff"/><path d="M2207.9 1852.5l-20-10 20-10" stroke="#333" fill="#fff" fill-opacity="0"/><path d="M2207.9 1842.5h-20" stroke="#333" fill="#fff"/><path d="M2356.3 1950.42v440.1" stroke="#333" fill="none"/><path d="M2366.3 1931.23l-10 20-10-20" stroke="#333" fill="#fff" fill-opacity="0"/><path d="M2356.3 1931.23v20M2366.3 2390.5h-20M2356.3 2410.5v-20" stroke="#333" fill="#fff"/><path d="M1827.6 2504.5h360.5" stroke="#333" fill="none"/><path d="M1808.42 2494.5l20 10-20 10" stroke="#333" fill="#fff" fill-opacity="0"/><path d="M1808.42 2504.5h20M2188.1 2494.5v20M2208.1 2504.5h-20" stroke="#333" fill="#fff"/><path d="M1425.76 1584.03a5 5 0 0 1 5-5h458.48a5 5 0 0 1 5 5v111.17a5 5 0 0 1-5 5h-458.48a5 5 0 0 1-5-5z" fill="none"/><g><use xlink:href="#Q" transform="matrix(1,0,0,1,1425.7607188969716,1579.032784293841) translate(42.22314814814848 73.48888888888887)"/></g><defs><path d="M340-520c0 222 153 411 375 411 88 0 179-17 272-51l27 125C923 6 824 27 715 27c-324 0-539-223-539-547 0-322 217-547 535-547 105 0 204 18 299 55l-41 129c-95-33-180-49-256-49-234-2-373 171-373 412" id="R"/><path d="M612-932c-94 1-239 48-305 86l-41-112c142-73 274-109 396-109 237 0 356 126 356 377 0 231-19 498 26 690H889c-13-42-19-98-19-168C781-38 661 27 508 27c-204 0-368-226-262-431 92-179 357-192 616-210 12-205-66-321-250-318zm-59 809c139-4 242-91 309-186v-189c-233 28-302 11-426 97-40 28-57 71-57 122-2 94 78 159 174 156" id="S"/><path d="M793-909c-150 0-257 142-312 235V0H326v-1042h155v211c120-239 312-290 553-183l-63 150c-69-30-128-45-178-45" id="T"/><path d="M592-311c-2 114 51 200 156 200 85 0 170-19 253-57l27 121C923 1 820 25 719 25c-186 0-279-98-279-295v-637H240v-135h200v-285h152v285h354v135H592v596" id="U"/><path d="M233-774c0-203 206-293 431-293 84 0 177 14 280 43l-35 131c-87-29-170-43-247-43-138-1-275 41-275 156 0 30 9 58 34 78 98 81 345 103 453 176 76 51 130 115 130 231 0 215-214 322-443 322-128 0-234-19-317-58l30-135c87 41 181 62 281 62 144 0 293-52 293-177 0-36-13-69-40-97-28-49-299-119-369-144-108-39-206-109-206-252" id="V"/><path d="M1229 446H0V315h1229v131" id="W"/><path d="M686 27c-142 0-259-82-315-177v562H215v-1454h156v135c60-87 186-160 327-160 262 0 385 253 385 535 0 283-133 559-397 559zm234-551c0-208-79-408-269-408-110 0-203 60-280 180v433c47 96 147 206 274 206 186 0 275-209 275-411" id="X"/><path d="M145-522c0-307 172-545 469-545 296 0 469 239 469 545 0 308-172 549-469 549-298 0-469-240-469-549zm164 2c0 210 103 411 305 411 199 0 306-205 306-411 0-217-100-412-306-412-208 0-305 192-305 412" id="Y"/><path d="M145-537c0-273 140-530 396-530 131 0 237 53 317 160v-504h156V0H858v-150C803-58 673 27 532 27c-119 0-214-53-283-159S145-374 145-537zm164 9c0 205 79 415 264 415 105 0 175-59 232-128 35-43 53-69 53-78v-433c-75-120-165-180-270-180-189 1-279 200-279 404" id="Z"/><path d="M369-375c2 160 35 264 184 264 95 0 198-59 307-178v-753h156V0H860v-154C748-35 630 25 506 25 311 25 213-93 213-330v-712h156v667" id="aa"/><g id="a"><use transform="matrix(0.009114583333333334,0,0,0.009114583333333334,0,0)" xlink:href="#R"/><use transform="matrix(0.009114583333333334,0,0,0.009114583333333334,11.201822916666668,0)" xlink:href="#S"/><use transform="matrix(0.009114583333333334,0,0,0.009114583333333334,22.403645833333336,0)" xlink:href="#T"/><use transform="matrix(0.009114583333333334,0,0,0.009114583333333334,33.60546875,0)" xlink:href="#U"/><use transform="matrix(0.009114583333333334,0,0,0.009114583333333334,44.80729166666667,0)" xlink:href="#V"/><use transform="matrix(0.009114583333333334,0,0,0.009114583333333334,56.00911458333334,0)" xlink:href="#W"/><use transform="matrix(0.009114583333333334,0,0,0.009114583333333334,67.21093750000001,0)" xlink:href="#X"/><use transform="matrix(0.009114583333333334,0,0,0.009114583333333334,78.41276041666669,0)" xlink:href="#T"/><use transform="matrix(0.009114583333333334,0,0,0.009114583333333334,89.61458333333336,0)" xlink:href="#Y"/><use transform="matrix(0.009114583333333334,0,0,0.009114583333333334,100.81640625000003,0)" xlink:href="#Z"/><use transform="matrix(0.009114583333333334,0,0,0.009114583333333334,112.01822916666671,0)" xlink:href="#aa"/><use transform="matrix(0.009114583333333334,0,0,0.009114583333333334,123.22005208333337,0)" xlink:href="#R"/><use transform="matrix(0.009114583333333334,0,0,0.009114583333333334,134.42187500000003,0)" xlink:href="#U"/><use transform="matrix(0.009114583333333334,0,0,0.009114583333333334,145.62369791666669,0)" xlink:href="#V"/></g><path fill="#0f0f0f" d="M277-555c0 244 77 420 297 424 127 2 249-93 255-210h175C980-127 805 20 574 20 258 20 81-222 92-562c11-319 164-533 481-540 237-5 426 165 431 392H829c-7-133-115-242-256-240-209 4-296 166-296 395" id="ab"/><path fill="#0f0f0f" d="M561-1102c238-4 403 126 403 351v498c0 99 13 178 38 237V0H808c-11-21-19-59-26-114C696-25 593 20 474 20c-199 0-368-130-365-320 4-251 214-359 490-356h180v-85c-1-135-86-212-229-212-115 0-232 67-233 171H131c20-205 206-316 430-320zM294-326c0 117 90 185 207 185 122 0 239-75 278-162v-222H634c-227 0-340 66-340 199" id="ac"/><path fill="#0f0f0f" d="M663-916c-163-27-288 18-338 148V0H140v-1082h180l3 125c61-97 147-145 258-145 36 0 63 5 82 14v172" id="ad"/><path fill="#0f0f0f" d="M456 20C285 20 205-92 206-268v-671H9v-143h197v-262h185v262h202v143H391v671c-9 125 92 149 207 118V0c-49 13-96 20-142 20" id="ae"/><path fill="#0f0f0f" d="M920 151H4V0h916v151" id="af"/><path fill="#0f0f0f" d="M341 0H156v-1082h185V0zm-91-1264c-68 0-108-42-109-105 0-62 41-107 109-107s110 44 110 107-42 105-110 105" id="ag"/><path fill="#0f0f0f" d="M520 20C244 20 95-247 95-550c0-298 151-550 427-552 127 0 227 43 301 130v-564h185V0H838l-9-116C755-25 652 20 520 20zm48-965c-210 0-288 177-288 416 0 218 87 392 286 392 117 0 203-53 257-158v-497c-55-102-140-153-255-153" id="ah"/><g id="b"><use transform="matrix(0.010416666666666668,0,0,0.010416666666666668,0,0)" xlink:href="#ab"/><use transform="matrix(0.010416666666666668,0,0,0.010416666666666668,11.166666666666668,0)" xlink:href="#ac"/><use transform="matrix(0.010416666666666668,0,0,0.010416666666666668,22.770833333333336,0)" xlink:href="#ad"/><use transform="matrix(0.010416666666666668,0,0,0.010416666666666668,30.51041666666667,0)" xlink:href="#ae"/><use transform="matrix(0.010416666666666668,0,0,0.010416666666666668,37.47916666666667,0)" xlink:href="#af"/><use transform="matrix(0.010416666666666668,0,0,0.010416666666666668,47.10416666666667,0)" xlink:href="#ag"/><use transform="matrix(0.010416666666666668,0,0,0.010416666666666668,52.28125000000001,0)" xlink:href="#ah"/></g><path fill="#0f0f0f" d="M589-945c-131 0-219 81-264 174V0H140v-1082h175l6 136c83-104 191-156 324-156 229 0 346 129 346 387V0H806v-716c-2-153-65-229-217-229" id="ai"/><path fill="#0f0f0f" d="M599-131c141 0 220-65 285-146l113 88C906-50 770 20 589 20 281 21 93-214 93-545c0-223 93-397 233-485 74-48 154-72 240-72 300 2 449 218 445 537v77H278c0 197 129 357 321 357zm227-509c-3-180-88-310-260-310-170 0-264 140-282 310h542" id="aj"/><path fill="#0f0f0f" d="M521 20C240 20 96-239 96-550c0-303 147-552 427-552 132 0 235 47 309 140l9-120h169V-26c4 277-183 454-459 452-165-1-334-81-400-187l96-111c79 98 176 147 291 147 180 1 288-109 286-290v-93C750-23 649 20 521 20zm48-965c-209 0-287 178-287 416 0 217 86 392 285 392 117 0 202-53 257-159v-494c-57-103-142-155-255-155" id="ak"/><g id="c"><use transform="matrix(0.010416666666666668,0,0,0.010416666666666668,0,0)" xlink:href="#ag"/><use transform="matrix(0.010416666666666668,0,0,0.010416666666666668,5.177083333333334,0)" xlink:href="#ai"/><use transform="matrix(0.010416666666666668,0,0,0.010416666666666668,16.947916666666668,0)" xlink:href="#ae"/><use transform="matrix(0.010416666666666668,0,0,0.010416666666666668,23.916666666666668,0)" xlink:href="#aj"/><use transform="matrix(0.010416666666666668,0,0,0.010416666666666668,35.21875,0)" xlink:href="#ak"/><use transform="matrix(0.010416666666666668,0,0,0.010416666666666668,47.18749999999999,0)" xlink:href="#aj"/><use transform="matrix(0.010416666666666668,0,0,0.010416666666666668,58.48958333333334,0)" xlink:href="#ad"/></g><path d="M63-220v92h138v28H63V0H30v-248h175v28H63" id="al"/><path d="M194 0L95-120 63-95V0H30v-248h33v124l119-124h40L117-140 236 0h-42" id="am"/><g id="d"><use transform="matrix(0.05,0,0,0.05,0,0)" xlink:href="#al"/><use transform="matrix(0.05,0,0,0.05,10.950000000000001,0)" xlink:href="#am"/></g><path fill="#0f0f0f" d="M632-1102c291 0 422 251 422 573 0 297-141 548-419 549-131 0-235-42-310-125v521H140v-1498h169l9 120c75-93 180-140 314-140zm-53 971c207 0 290-180 290-419 0-218-92-395-292-395-112 0-196 50-252 149v517c55 99 140 148 254 148" id="an"/><path fill="#0f0f0f" d="M584 20C278 26 81-227 91-551c10-320 175-545 491-551 308-5 503 247 494 573-9 322-175 543-492 549zm-2-970c-208 0-305 185-305 421 0 216 106 398 307 398 211 0 307-186 307-420 0-214-109-399-309-399" id="ao"/><path fill="#0f0f0f" d="M491 20c-241-1-355-148-355-398v-704h185v699c0 164 67 246 200 246 141 0 235-53 282-158v-787h185V0H812l-4-107C736-22 630 20 491 20" id="ap"/><g id="e"><use transform="matrix(0.010416666666666668,0,0,0.010416666666666668,0,0)" xlink:href="#an"/><use transform="matrix(0.010416666666666668,0,0,0.010416666666666668,11.968750000000002,0)" xlink:href="#ad"/><use transform="matrix(0.010416666666666668,0,0,0.010416666666666668,18.979166666666668,0)" xlink:href="#ao"/><use transform="matrix(0.010416666666666668,0,0,0.010416666666666668,31.145833333333336,0)" xlink:href="#ah"/><use transform="matrix(0.010416666666666668,0,0,0.010416666666666668,43.177083333333336,0)" xlink:href="#ap"/><use transform="matrix(0.010416666666666668,0,0,0.010416666666666668,54.9375,0)" xlink:href="#ab"/><use transform="matrix(0.010416666666666668,0,0,0.010416666666666668,66.10416666666667,0)" xlink:href="#ae"/><use transform="matrix(0.010416666666666668,0,0,0.010416666666666668,73.07291666666667,0)" xlink:href="#af"/><use transform="matrix(0.010416666666666668,0,0,0.010416666666666668,82.69791666666667,0)" xlink:href="#ag"/><use transform="matrix(0.010416666666666668,0,0,0.010416666666666668,87.87499999999999,0)" xlink:href="#ah"/></g><path fill="#0f0f0f" d="M524 20C238 18 95-240 95-550c0-307 146-552 431-552 128 0 229 43 303 129l8-109h170V416H822v-516C747-20 648 20 524 20zm48-970c-208 0-292 182-292 421 0 219 92 398 290 398 110 0 194-49 252-146v-530c-59-95-142-143-250-143" id="aq"/><path fill="#0f0f0f" d="M494-271l252-811h198L509 167C425 381 299 474 84 421V271c167 16 242-37 283-173l41-110L22-1082h202" id="ar"/><g id="f"><use transform="matrix(0.010416666666666668,0,0,0.010416666666666668,0,0)" xlink:href="#aq"/><use transform="matrix(0.010416666666666668,0,0,0.010416666666666668,12.125000000000002,0)" xlink:href="#ap"/><use transform="matrix(0.010416666666666668,0,0,0.010416666666666668,23.885416666666668,0)" xlink:href="#ac"/><use transform="matrix(0.010416666666666668,0,0,0.010416666666666668,35.48958333333334,0)" xlink:href="#ai"/><use transform="matrix(0.010416666666666668,0,0,0.010416666666666668,47.26041666666668,0)" xlink:href="#ae"/><use transform="matrix(0.010416666666666668,0,0,0.010416666666666668,54.229166666666686,0)" xlink:href="#ag"/><use transform="matrix(0.010416666666666668,0,0,0.010416666666666668,59.406250000000014,0)" xlink:href="#ae"/><use transform="matrix(0.010416666666666668,0,0,0.010416666666666668,66.37500000000001,0)" xlink:href="#ar"/></g><g id="g"><use transform="matrix(0.010416666666666668,0,0,0.010416666666666668,0,0)" xlink:href="#ag"/><use transform="matrix(0.010416666666666668,0,0,0.010416666666666668,5.177083333333334,0)" xlink:href="#ai"/><use transform="matrix(0.010416666666666668,0,0,0.010416666666666668,16.947916666666668,0)" xlink:href="#ae"/><use transform="matrix(0.010416666666666668,0,0,0.010416666666666668,23.916666666666668,0)" xlink:href="#aj"/><use transform="matrix(0.010416666666666668,0,0,0.010416666666666668,35.21875,0)" xlink:href="#ak"/><use transform="matrix(0.010416666666666668,0,0,0.010416666666666668,47.18749999999999,0)" xlink:href="#aj"/><use transform="matrix(0.010416666666666668,0,0,0.010416666666666668,58.48958333333334,0)" xlink:href="#ad"/></g><path d="M232-93c-1 65-40 97-104 97C67 4 28-28 28-90v-158h33c8 89-33 224 67 224 102 0 64-133 71-224h33v155" id="as"/><path d="M135-143c-3-34-86-38-87 0 15 53 115 12 119 90S17 21 10-45l28-5c4 36 97 45 98 0-10-56-113-15-118-90-4-57 82-63 122-42 12 7 21 19 24 35" id="at"/><path d="M100-194c63 0 86 42 84 106H49c0 40 14 67 53 68 26 1 43-12 49-29l28 8c-11 28-37 45-77 45C44 4 14-33 15-96c1-61 26-98 85-98zm52 81c6-60-76-77-97-28-3 7-6 17-6 28h103" id="au"/><path d="M114-163C36-179 61-72 57 0H25l-1-190h30c1 12-1 29 2 39 6-27 23-49 58-41v29" id="av"/><g id="h"><use transform="matrix(0.05185185185185186,0,0,0.05185185185185186,0,0)" xlink:href="#as"/><use transform="matrix(0.05185185185185186,0,0,0.05185185185185186,13.42962962962963,0)" xlink:href="#at"/><use transform="matrix(0.05185185185185186,0,0,0.05185185185185186,22.762962962962966,0)" xlink:href="#au"/><use transform="matrix(0.05185185185185186,0,0,0.05185185185185186,33.13333333333334,0)" xlink:href="#av"/><use transform="matrix(0.05185185185185186,0,0,0.05185185185185186,39.30370370370371,0)" xlink:href="#at"/></g><path d="M24-231v-30h32v30H24zM24 0v-190h32V0H24" id="aw"/><path d="M85-194c31 0 48 13 60 33l-1-100h32l1 261h-30c-2-10 0-23-3-31C134-8 116 4 85 4 32 4 16-35 15-94c0-66 23-100 70-100zm9 24c-40 0-46 34-46 75 0 40 6 74 45 74 42 0 51-32 51-76 0-42-9-74-50-73" id="ax"/><g id="i"><use transform="matrix(0.05185185185185186,0,0,0.05185185185185186,0,0)" xlink:href="#aw"/><use transform="matrix(0.05185185185185186,0,0,0.05185185185185186,4.0962962962962965,0)" xlink:href="#ax"/></g><path fill="#0f0f0f" d="M24-231v-30h32v30H24zM24 0v-190h32V0H24" id="ay"/><path fill="#0f0f0f" d="M117-194c89-4 53 116 60 194h-32v-121c0-31-8-49-39-48C34-167 62-67 57 0H25l-1-190h30c1 10-1 24 2 32 11-22 29-35 61-36" id="az"/><path fill="#0f0f0f" d="M59-47c-2 24 18 29 38 22v24C64 9 27 4 27-40v-127H5v-23h24l9-43h21v43h35v23H59v120" id="aA"/><path fill="#0f0f0f" d="M100-194c63 0 86 42 84 106H49c0 40 14 67 53 68 26 1 43-12 49-29l28 8c-11 28-37 45-77 45C44 4 14-33 15-96c1-61 26-98 85-98zm52 81c6-60-76-77-97-28-3 7-6 17-6 28h103" id="aB"/><path fill="#0f0f0f" d="M177-190C167-65 218 103 67 71c-23-6-38-20-44-43l32-5c15 47 100 32 89-28v-30C133-14 115 1 83 1 29 1 15-40 15-95c0-56 16-97 71-98 29-1 48 16 59 35 1-10 0-23 2-32h30zM94-22c36 0 50-32 50-73 0-42-14-75-50-75-39 0-46 34-46 75s6 73 46 73" id="aC"/><path fill="#0f0f0f" d="M114-163C36-179 61-72 57 0H25l-1-190h30c1 12-1 29 2 39 6-27 23-49 58-41v29" id="aD"/><g id="j"><use transform="matrix(0.05925925925925927,0,0,0.05925925925925927,0,0)" xlink:href="#ay"/><use transform="matrix(0.05925925925925927,0,0,0.05925925925925927,4.681481481481482,0)" xlink:href="#az"/><use transform="matrix(0.05925925925925927,0,0,0.05925925925925927,16.533333333333335,0)" xlink:href="#aA"/><use transform="matrix(0.05925925925925927,0,0,0.05925925925925927,22.459259259259262,0)" xlink:href="#aB"/><use transform="matrix(0.05925925925925927,0,0,0.05925925925925927,34.31111111111112,0)" xlink:href="#aC"/><use transform="matrix(0.05925925925925927,0,0,0.05925925925925927,46.16296296296297,0)" xlink:href="#aB"/><use transform="matrix(0.05925925925925927,0,0,0.05925925925925927,58.01481481481483,0)" xlink:href="#aD"/></g><path d="M30-248c87 1 191-15 191 75 0 78-77 80-158 76V0H30v-248zm33 125c57 0 124 11 124-50 0-59-68-47-124-48v98" id="aE"/><g id="k"><use transform="matrix(0.05,0,0,0.05,0,0)" xlink:href="#aE"/><use transform="matrix(0.05,0,0,0.05,12,0)" xlink:href="#am"/></g><path fill="#111827" d="M84 4C-5 8 30-112 23-190h32v120c0 31 7 50 39 49 72-2 45-101 50-169h31l1 190h-30c-1-10 1-25-2-33-11 22-28 36-60 37" id="aF"/><path fill="#111827" d="M135-143c-3-34-86-38-87 0 15 53 115 12 119 90S17 21 10-45l28-5c4 36 97 45 98 0-10-56-113-15-118-90-4-57 82-63 122-42 12 7 21 19 24 35" id="aG"/><path fill="#111827" d="M100-194c63 0 86 42 84 106H49c0 40 14 67 53 68 26 1 43-12 49-29l28 8c-11 28-37 45-77 45C44 4 14-33 15-96c1-61 26-98 85-98zm52 81c6-60-76-77-97-28-3 7-6 17-6 28h103" id="aH"/><path fill="#111827" d="M114-163C36-179 61-72 57 0H25l-1-190h30c1 12-1 29 2 39 6-27 23-49 58-41v29" id="aI"/><path fill="#111827" d="M117-194c89-4 53 116 60 194h-32v-121c0-31-8-49-39-48C34-167 62-67 57 0H25l-1-190h30c1 10-1 24 2 32 11-22 29-35 61-36" id="aJ"/><path fill="#111827" d="M141-36C126-15 110 5 73 4 37 3 15-17 15-53c-1-64 63-63 125-63 3-35-9-54-41-54-24 1-41 7-42 31l-33-3c5-37 33-52 76-52 45 0 72 20 72 64v82c-1 20 7 32 28 27v20c-31 9-61-2-59-35zM48-53c0 20 12 33 32 33 41-3 63-29 60-74-43 2-92-5-92 41" id="aK"/><path fill="#111827" d="M210-169c-67 3-38 105-44 169h-31v-121c0-29-5-50-35-48C34-165 62-65 56 0H25l-1-190h30c1 10-1 24 2 32 10-44 99-50 107 0 11-21 27-35 58-36 85-2 47 119 55 194h-31v-121c0-29-5-49-35-48" id="aL"/><g id="l"><use transform="matrix(0.05185185185185186,0,0,0.05185185185185186,0,0)" xlink:href="#aF"/><use transform="matrix(0.05185185185185186,0,0,0.05185185185185186,10.370370370370372,0)" xlink:href="#aG"/><use transform="matrix(0.05185185185185186,0,0,0.05185185185185186,19.703703703703706,0)" xlink:href="#aH"/><use transform="matrix(0.05185185185185186,0,0,0.05185185185185186,30.074074074074076,0)" xlink:href="#aI"/><use transform="matrix(0.05185185185185186,0,0,0.05185185185185186,36.24444444444445,0)" xlink:href="#aJ"/><use transform="matrix(0.05185185185185186,0,0,0.05185185185185186,46.61481481481482,0)" xlink:href="#aK"/><use transform="matrix(0.05185185185185186,0,0,0.05185185185185186,56.985185185185195,0)" xlink:href="#aL"/><use transform="matrix(0.05185185185185186,0,0,0.05185185185185186,72.4888888888889,0)" xlink:href="#aH"/></g><path d="M137 0h-34L2-248h35l83 218 83-218h36" id="aM"/><path d="M205 0l-28-72H64L36 0H1l101-248h38L239 0h-34zm-38-99l-47-123c-12 45-31 82-46 123h93" id="aN"/><path d="M233-177c-1 41-23 64-60 70L243 0h-38l-65-103H63V0H30v-248c88 3 205-21 203 71zM63-129c60-2 137 13 137-47 0-61-80-42-137-45v92" id="aO"/><path d="M212-179c-10-28-35-45-73-45-59 0-87 40-87 99 0 60 29 101 89 101 43 0 62-24 78-52l27 14C228-24 195 4 139 4 59 4 22-46 18-125c-6-104 99-153 187-111 19 9 31 26 39 46" id="aP"/><path d="M197 0v-115H63V0H30v-248h33v105h134v-105h34V0h-34" id="aQ"/><path d="M87 75C49 33 22-17 22-94c0-76 28-126 65-167h31c-38 41-64 92-64 168S80 34 118 75H87" id="aR"/><path d="M54-142c48-35 137-8 131 61C196 18 31 33 14-55l32-4c7 23 22 37 52 37 35-1 51-22 54-58 4-55-73-65-99-34H22l8-134h141v27H59" id="aS"/><path d="M101-251c68 0 85 55 85 127S166 4 100 4C33 4 14-52 14-124c0-73 17-127 87-127zm-1 229c47 0 54-49 54-102s-4-102-53-102c-51 0-55 48-55 102 0 53 5 102 54 102" id="aT"/><path d="M33-261c38 41 65 92 65 168S71 34 33 75H2C39 34 66-17 66-93S39-220 2-261h31" id="aU"/><g id="m"><use transform="matrix(0.05,0,0,0.05,0,0)" xlink:href="#aM"/><use transform="matrix(0.05,0,0,0.05,10.65,0)" xlink:href="#aN"/><use transform="matrix(0.05,0,0,0.05,22.65,0)" xlink:href="#aO"/><use transform="matrix(0.05,0,0,0.05,35.6,0)" xlink:href="#aP"/><use transform="matrix(0.05,0,0,0.05,48.550000000000004,0)" xlink:href="#aQ"/><use transform="matrix(0.05,0,0,0.05,61.5,0)" xlink:href="#aN"/><use transform="matrix(0.05,0,0,0.05,73.5,0)" xlink:href="#aO"/><use transform="matrix(0.05,0,0,0.05,86.45,0)" xlink:href="#aR"/><use transform="matrix(0.05,0,0,0.05,92.4,0)" xlink:href="#aS"/><use transform="matrix(0.05,0,0,0.05,102.4,0)" xlink:href="#aT"/><use transform="matrix(0.05,0,0,0.05,112.4,0)" xlink:href="#aU"/></g><path fill="#111827" d="M115-194c55 1 70 41 70 98S169 2 115 4C84 4 66-9 55-30l1 105H24l-1-265h31l2 30c10-21 28-34 59-34zm-8 174c40 0 45-34 45-75s-6-73-45-74c-42 0-51 32-51 76 0 43 10 73 51 73" id="aV"/><path fill="#111827" d="M206 0h-36l-40-164L89 0H53L-1-190h32L70-26l43-164h34l41 164 42-164h31" id="aW"/><path fill="#111827" d="M100-194c62-1 85 37 85 99 1 63-27 99-86 99S16-35 15-95c0-66 28-99 85-99zM99-20c44 1 53-31 53-75 0-43-8-75-51-75s-53 32-53 75 10 74 51 75" id="aX"/><path fill="#111827" d="M85-194c31 0 48 13 60 33l-1-100h32l1 261h-30c-2-10 0-23-3-31C134-8 116 4 85 4 32 4 16-35 15-94c0-66 23-100 70-100zm9 24c-40 0-46 34-46 75 0 40 6 74 45 74 42 0 51-32 51-76 0-42-9-74-50-73" id="aY"/><g id="n"><use transform="matrix(0.05185185185185186,0,0,0.05185185185185186,0,0)" xlink:href="#aV"/><use transform="matrix(0.05185185185185186,0,0,0.05185185185185186,10.370370370370372,0)" xlink:href="#aK"/><use transform="matrix(0.05185185185185186,0,0,0.05185185185185186,20.740740740740744,0)" xlink:href="#aG"/><use transform="matrix(0.05185185185185186,0,0,0.05185185185185186,30.074074074074076,0)" xlink:href="#aG"/><use transform="matrix(0.05185185185185186,0,0,0.05185185185185186,39.40740740740741,0)" xlink:href="#aW"/><use transform="matrix(0.05185185185185186,0,0,0.05185185185185186,52.83703703703704,0)" xlink:href="#aX"/><use transform="matrix(0.05185185185185186,0,0,0.05185185185185186,63.207407407407416,0)" xlink:href="#aI"/><use transform="matrix(0.05185185185185186,0,0,0.05185185185185186,69.3777777777778,0)" xlink:href="#aY"/></g><path fill="#111827" d="M101-234c-31-9-42 10-38 44h38v23H63V0H32v-167H5v-23h27c-7-52 17-82 69-68v24" id="aZ"/><path fill="#111827" d="M24-231v-30h32v30H24zM24 0v-190h32V0H24" id="ba"/><path fill="#111827" d="M59-47c-2 24 18 29 38 22v24C64 9 27 4 27-40v-127H5v-23h24l9-43h21v43h35v23H59v120" id="bb"/><path fill="#111827" d="M-5 72V49h209v23H-5" id="bc"/><g id="o"><use transform="matrix(0.05185185185185186,0,0,0.05185185185185186,0,0)" xlink:href="#aZ"/><use transform="matrix(0.05185185185185186,0,0,0.05185185185185186,5.185185185185186,0)" xlink:href="#ba"/><use transform="matrix(0.05185185185185186,0,0,0.05185185185185186,9.281481481481482,0)" xlink:href="#aI"/><use transform="matrix(0.05185185185185186,0,0,0.05185185185185186,15.451851851851853,0)" xlink:href="#aG"/><use transform="matrix(0.05185185185185186,0,0,0.05185185185185186,24.785185185185185,0)" xlink:href="#bb"/><use transform="matrix(0.05185185185185186,0,0,0.05185185185185186,29.970370370370375,0)" xlink:href="#bc"/><use transform="matrix(0.05185185185185186,0,0,0.05185185185185186,40.34074074074074,0)" xlink:href="#aJ"/><use transform="matrix(0.05185185185185186,0,0,0.05185185185185186,50.711111111111116,0)" xlink:href="#aK"/><use transform="matrix(0.05185185185185186,0,0,0.05185185185185186,61.08148148148149,0)" xlink:href="#aL"/><use transform="matrix(0.05185185185185186,0,0,0.05185185185185186,76.5851851851852,0)" xlink:href="#aH"/></g><path fill="#111827" d="M24 0v-261h32V0H24" id="bd"/><g id="p"><use transform="matrix(0.05185185185185186,0,0,0.05185185185185186,0,0)" xlink:href="#bd"/><use transform="matrix(0.05185185185185186,0,0,0.05185185185185186,4.0962962962962965,0)" xlink:href="#aK"/><use transform="matrix(0.05185185185185186,0,0,0.05185185185185186,14.466666666666669,0)" xlink:href="#aG"/><use transform="matrix(0.05185185185185186,0,0,0.05185185185185186,23.800000000000004,0)" xlink:href="#bb"/><use transform="matrix(0.05185185185185186,0,0,0.05185185185185186,28.985185185185188,0)" xlink:href="#bc"/><use transform="matrix(0.05185185185185186,0,0,0.05185185185185186,39.35555555555556,0)" xlink:href="#aJ"/><use transform="matrix(0.05185185185185186,0,0,0.05185185185185186,49.725925925925935,0)" xlink:href="#aK"/><use transform="matrix(0.05185185185185186,0,0,0.05185185185185186,60.096296296296316,0)" xlink:href="#aL"/><use transform="matrix(0.05185185185185186,0,0,0.05185185185185186,75.60000000000001,0)" xlink:href="#aH"/></g><g id="q"><use transform="matrix(0.05185185185185186,0,0,0.05185185185185186,0,0)" xlink:href="#aH"/><use transform="matrix(0.05185185185185186,0,0,0.05185185185185186,10.370370370370372,0)" xlink:href="#aL"/><use transform="matrix(0.05185185185185186,0,0,0.05185185185185186,25.874074074074077,0)" xlink:href="#aK"/><use transform="matrix(0.05185185185185186,0,0,0.05185185185185186,36.24444444444445,0)" xlink:href="#ba"/><use transform="matrix(0.05185185185185186,0,0,0.05185185185185186,40.34074074074074,0)" xlink:href="#bd"/></g><path fill="#111827" d="M686 27c-142 0-259-82-315-177v562H215v-1454h156v135c60-87 186-160 327-160 262 0 385 253 385 535 0 283-133 559-397 559zm234-551c0-208-79-408-269-408-110 0-203 60-280 180v433c47 96 147 206 274 206 186 0 275-209 275-411" id="be"/><path fill="#111827" d="M793-909c-150 0-257 142-312 235V0H326v-1042h155v211c120-239 312-290 553-183l-63 150c-69-30-128-45-178-45" id="bf"/><path fill="#111827" d="M145-522c0-307 172-545 469-545 296 0 469 239 469 545 0 308-172 549-469 549-298 0-469-240-469-549zm164 2c0 210 103 411 305 411 199 0 306-205 306-411 0-217-100-412-306-412-208 0-305 192-305 412" id="bg"/><path fill="#111827" d="M145-537c0-273 140-530 396-530 131 0 237 53 317 160v-504h156V0H858v-150C803-58 673 27 532 27c-119 0-214-53-283-159S145-374 145-537zm164 9c0 205 79 415 264 415 105 0 175-59 232-128 35-43 53-69 53-78v-433c-75-120-165-180-270-180-189 1-279 200-279 404" id="bh"/><path fill="#111827" d="M369-375c2 160 35 264 184 264 95 0 198-59 307-178v-753h156V0H860v-154C748-35 630 25 506 25 311 25 213-93 213-330v-712h156v667" id="bi"/><path fill="#111827" d="M340-520c0 222 153 411 375 411 88 0 179-17 272-51l27 125C923 6 824 27 715 27c-324 0-539-223-539-547 0-322 217-547 535-547 105 0 204 18 299 55l-41 129c-95-33-180-49-256-49-234-2-373 171-373 412" id="bj"/><path fill="#111827" d="M592-311c-2 114 51 200 156 200 85 0 170-19 253-57l27 121C923 1 820 25 719 25c-186 0-279-98-279-295v-637H240v-135h200v-285h152v285h354v135H592v596" id="bk"/><path fill="#111827" d="M233-774c0-203 206-293 431-293 84 0 177 14 280 43l-35 131c-87-29-170-43-247-43-138-1-275 41-275 156 0 30 9 58 34 78 98 81 345 103 453 176 76 51 130 115 130 231 0 215-214 322-443 322-128 0-234-19-317-58l30-135c87 41 181 62 281 62 144 0 293-52 293-177 0-36-13-69-40-97-28-49-299-119-369-144-108-39-206-109-206-252" id="bl"/><g id="r"><use transform="matrix(0.009114583333333334,0,0,0.009114583333333334,0,0)" xlink:href="#be"/><use transform="matrix(0.009114583333333334,0,0,0.009114583333333334,11.201822916666668,0)" xlink:href="#bf"/><use transform="matrix(0.009114583333333334,0,0,0.009114583333333334,22.403645833333336,0)" xlink:href="#bg"/><use transform="matrix(0.009114583333333334,0,0,0.009114583333333334,33.60546875,0)" xlink:href="#bh"/><use transform="matrix(0.009114583333333334,0,0,0.009114583333333334,44.80729166666667,0)" xlink:href="#bi"/><use transform="matrix(0.009114583333333334,0,0,0.009114583333333334,56.00911458333334,0)" xlink:href="#bj"/><use transform="matrix(0.009114583333333334,0,0,0.009114583333333334,67.21093750000001,0)" xlink:href="#bk"/><use transform="matrix(0.009114583333333334,0,0,0.009114583333333334,78.41276041666669,0)" xlink:href="#bl"/></g><g id="s"><use transform="matrix(0.05,0,0,0.05,0,0)" xlink:href="#aw"/><use transform="matrix(0.05,0,0,0.05,3.95,0)" xlink:href="#ax"/></g><g id="t"><use transform="matrix(0.05,0,0,0.05,0,0)" xlink:href="#aE"/><use transform="matrix(0.05,0,0,0.05,12,0)" xlink:href="#am"/></g><path d="M117-194c89-4 53 116 60 194h-32v-121c0-31-8-49-39-48C34-167 62-67 57 0H25l-1-190h30c1 10-1 24 2 32 11-22 29-35 61-36" id="bm"/><path d="M141-36C126-15 110 5 73 4 37 3 15-17 15-53c-1-64 63-63 125-63 3-35-9-54-41-54-24 1-41 7-42 31l-33-3c5-37 33-52 76-52 45 0 72 20 72 64v82c-1 20 7 32 28 27v20c-31 9-61-2-59-35zM48-53c0 20 12 33 32 33 41-3 63-29 60-74-43 2-92-5-92 41" id="bn"/><path d="M210-169c-67 3-38 105-44 169h-31v-121c0-29-5-50-35-48C34-165 62-65 56 0H25l-1-190h30c1 10-1 24 2 32 10-44 99-50 107 0 11-21 27-35 58-36 85-2 47 119 55 194h-31v-121c0-29-5-49-35-48" id="bo"/><g id="u"><use transform="matrix(0.05,0,0,0.05,0,0)" xlink:href="#bm"/><use transform="matrix(0.05,0,0,0.05,10,0)" xlink:href="#bn"/><use transform="matrix(0.05,0,0,0.05,20,0)" xlink:href="#bo"/><use transform="matrix(0.05,0,0,0.05,34.95,0)" xlink:href="#au"/></g><g id="v"><use transform="matrix(0.05,0,0,0.05,0,0)" xlink:href="#aM"/><use transform="matrix(0.05,0,0,0.05,10.65,0)" xlink:href="#aN"/><use transform="matrix(0.05,0,0,0.05,22.65,0)" xlink:href="#aO"/><use transform="matrix(0.05,0,0,0.05,35.6,0)" xlink:href="#aP"/><use transform="matrix(0.05,0,0,0.05,48.550000000000004,0)" xlink:href="#aQ"/><use transform="matrix(0.05,0,0,0.05,61.5,0)" xlink:href="#aN"/><use transform="matrix(0.05,0,0,0.05,73.5,0)" xlink:href="#aO"/><use transform="matrix(0.05,0,0,0.05,86.45,0)" xlink:href="#aR"/><use transform="matrix(0.05,0,0,0.05,92.4,0)" xlink:href="#aS"/><use transform="matrix(0.05,0,0,0.05,102.4,0)" xlink:href="#aT"/><use transform="matrix(0.05,0,0,0.05,112.4,0)" xlink:href="#aU"/></g><g id="w"><use transform="matrix(0.010416666666666668,0,0,0.010416666666666668,0,0)" xlink:href="#an"/><use transform="matrix(0.010416666666666668,0,0,0.010416666666666668,11.968750000000002,0)" xlink:href="#ad"/><use transform="matrix(0.010416666666666668,0,0,0.010416666666666668,19.187500000000004,0)" xlink:href="#ag"/><use transform="matrix(0.010416666666666668,0,0,0.010416666666666668,24.364583333333336,0)" xlink:href="#ab"/><use transform="matrix(0.010416666666666668,0,0,0.010416666666666668,35.53125,0)" xlink:href="#aj"/></g><path d="M100-194c62-1 85 37 85 99 1 63-27 99-86 99S16-35 15-95c0-66 28-99 85-99zM99-20c44 1 53-31 53-75 0-43-8-75-51-75s-53 32-53 75 10 74 51 75" id="bp"/><path d="M179-190L93 31C79 59 56 82 12 73V49c39 6 53-20 64-50L1-190h34L92-34l54-156h33" id="bq"/><g id="x"><use transform="matrix(0.05,0,0,0.05,0,0)" xlink:href="#bo"/><use transform="matrix(0.05,0,0,0.05,14.950000000000001,0)" xlink:href="#bp"/><use transform="matrix(0.05,0,0,0.05,24.950000000000003,0)" xlink:href="#bm"/><use transform="matrix(0.05,0,0,0.05,34.95,0)" xlink:href="#au"/><use transform="matrix(0.05,0,0,0.05,44.95,0)" xlink:href="#bq"/></g><path fill="#0f0f0f" d="M538-131c121 0 232-49 232-156 0-50-20-88-56-117-73-60-334-92-420-143-92-55-162-110-162-238 0-190 192-317 400-317 223 0 414 129 413 338H759c0-108-110-186-227-186-119 0-215 53-215 159 0 45 18 78 53 101 76 52 331 90 416 139 98 57 169 115 169 251C955-92 760 20 538 20c-176 0-314-68-386-174-38-55-57-115-57-179h185c6 129 116 202 258 202" id="br"/><g id="y"><use transform="matrix(0.010416666666666668,0,0,0.010416666666666668,0,0)" xlink:href="#ah"/><use transform="matrix(0.010416666666666668,0,0,0.010416666666666668,12.031250000000002,0)" xlink:href="#aj"/><use transform="matrix(0.010416666666666668,0,0,0.010416666666666668,23.333333333333336,0)" xlink:href="#br"/><use transform="matrix(0.010416666666666668,0,0,0.010416666666666668,34.333333333333336,0)" xlink:href="#ab"/><use transform="matrix(0.010416666666666668,0,0,0.010416666666666668,45.49999999999999,0)" xlink:href="#ad"/><use transform="matrix(0.010416666666666668,0,0,0.010416666666666668,52.71874999999999,0)" xlink:href="#ag"/><use transform="matrix(0.010416666666666668,0,0,0.010416666666666668,57.89583333333334,0)" xlink:href="#an"/><use transform="matrix(0.010416666666666668,0,0,0.010416666666666668,69.86458333333334,0)" xlink:href="#ae"/><use transform="matrix(0.010416666666666668,0,0,0.010416666666666668,76.83333333333334,0)" xlink:href="#ag"/><use transform="matrix(0.010416666666666668,0,0,0.010416666666666668,82.01041666666667,0)" xlink:href="#ao"/><use transform="matrix(0.010416666666666668,0,0,0.010416666666666668,94.17708333333334,0)" xlink:href="#ai"/></g><path d="M101-251c82-7 93 87 43 132L82-64C71-53 59-42 53-27h129V0H18c2-99 128-94 128-182 0-28-16-43-45-43s-46 15-49 41l-32-3c6-41 34-60 81-64" id="bs"/><g id="z"><use transform="matrix(0.05,0,0,0.05,0,0)" xlink:href="#aM"/><use transform="matrix(0.05,0,0,0.05,10.65,0)" xlink:href="#aN"/><use transform="matrix(0.05,0,0,0.05,22.65,0)" xlink:href="#aO"/><use transform="matrix(0.05,0,0,0.05,35.6,0)" xlink:href="#aP"/><use transform="matrix(0.05,0,0,0.05,48.550000000000004,0)" xlink:href="#aQ"/><use transform="matrix(0.05,0,0,0.05,61.5,0)" xlink:href="#aN"/><use transform="matrix(0.05,0,0,0.05,73.5,0)" xlink:href="#aO"/><use transform="matrix(0.05,0,0,0.05,86.45,0)" xlink:href="#aR"/><use transform="matrix(0.05,0,0,0.05,92.4,0)" xlink:href="#bs"/><use transform="matrix(0.05,0,0,0.05,102.4,0)" xlink:href="#aT"/><use transform="matrix(0.05,0,0,0.05,112.4,0)" xlink:href="#aT"/><use transform="matrix(0.05,0,0,0.05,122.4,0)" xlink:href="#aU"/></g><path d="M627-1067c255 1 431 226 422 502v49H334c-8 217 149 407 354 407 95 0 192-17 293-51l27 125C916 6 809 27 686 27c-314 0-516-228-516-551 0-303 173-543 457-543zm252 424c8-145-114-289-246-289-166 0-282 128-289 289h535" id="bt"/><g id="A"><use transform="matrix(0.009114583333333334,0,0,0.009114583333333334,0,0)" xlink:href="#Y"/><use transform="matrix(0.009114583333333334,0,0,0.009114583333333334,11.201822916666668,0)" xlink:href="#T"/><use transform="matrix(0.009114583333333334,0,0,0.009114583333333334,22.403645833333336,0)" xlink:href="#Z"/><use transform="matrix(0.009114583333333334,0,0,0.009114583333333334,33.60546875,0)" xlink:href="#bt"/><use transform="matrix(0.009114583333333334,0,0,0.009114583333333334,44.80729166666667,0)" xlink:href="#T"/><use transform="matrix(0.009114583333333334,0,0,0.009114583333333334,56.00911458333334,0)" xlink:href="#V"/><use transform="matrix(0.009114583333333334,0,0,0.009114583333333334,67.21093750000001,0)" xlink:href="#W"/><use transform="matrix(0.009114583333333334,0,0,0.009114583333333334,78.41276041666669,0)" xlink:href="#X"/><use transform="matrix(0.009114583333333334,0,0,0.009114583333333334,89.61458333333336,0)" xlink:href="#T"/><use transform="matrix(0.009114583333333334,0,0,0.009114583333333334,100.81640625000003,0)" xlink:href="#Y"/><use transform="matrix(0.009114583333333334,0,0,0.009114583333333334,112.01822916666671,0)" xlink:href="#Z"/><use transform="matrix(0.009114583333333334,0,0,0.009114583333333334,123.22005208333337,0)" xlink:href="#aa"/><use transform="matrix(0.009114583333333334,0,0,0.009114583333333334,134.42187500000003,0)" xlink:href="#R"/><use transform="matrix(0.009114583333333334,0,0,0.009114583333333334,145.62369791666669,0)" xlink:href="#U"/><use transform="matrix(0.009114583333333334,0,0,0.009114583333333334,156.82552083333334,0)" xlink:href="#V"/></g><g id="B"><use transform="matrix(0.010416666666666668,0,0,0.010416666666666668,0,0)" xlink:href="#ao"/><use transform="matrix(0.010416666666666668,0,0,0.010416666666666668,12.166666666666668,0)" xlink:href="#ad"/><use transform="matrix(0.010416666666666668,0,0,0.010416666666666668,19.187500000000004,0)" xlink:href="#ah"/><use transform="matrix(0.010416666666666668,0,0,0.010416666666666668,31.218750000000007,0)" xlink:href="#aj"/><use transform="matrix(0.010416666666666668,0,0,0.010416666666666668,42.52083333333334,0)" xlink:href="#ad"/><use transform="matrix(0.010416666666666668,0,0,0.010416666666666668,49.739583333333336,0)" xlink:href="#af"/><use transform="matrix(0.010416666666666668,0,0,0.010416666666666668,59.36458333333334,0)" xlink:href="#ag"/><use transform="matrix(0.010416666666666668,0,0,0.010416666666666668,64.54166666666667,0)" xlink:href="#ah"/></g><g id="C"><use transform="matrix(0.010416666666666668,0,0,0.010416666666666668,0,0)" xlink:href="#ag"/><use transform="matrix(0.010416666666666668,0,0,0.010416666666666668,5.177083333333334,0)" xlink:href="#ai"/><use transform="matrix(0.010416666666666668,0,0,0.010416666666666668,16.947916666666668,0)" xlink:href="#ae"/><use transform="matrix(0.010416666666666668,0,0,0.010416666666666668,23.916666666666668,0)" xlink:href="#aj"/><use transform="matrix(0.010416666666666668,0,0,0.010416666666666668,35.21875,0)" xlink:href="#ak"/><use transform="matrix(0.010416666666666668,0,0,0.010416666666666668,47.18749999999999,0)" xlink:href="#aj"/><use transform="matrix(0.010416666666666668,0,0,0.010416666666666668,58.48958333333334,0)" xlink:href="#ad"/></g><path fill="#0f0f0f" d="M972-643H361V0H169v-1456h902v158H361v498h611v157" id="bu"/><path fill="#0f0f0f" d="M539-677L361-492V0H169v-1456h192v720l647-720h232L667-813 1285 0h-230" id="bv"/><g id="D"><use transform="matrix(0.010416666666666668,0,0,0.010416666666666668,0,0)" xlink:href="#bu"/><use transform="matrix(0.010416666666666668,0,0,0.010416666666666668,11.791666666666668,0)" xlink:href="#bv"/></g><path fill="#0f0f0f" d="M1240-945c-141 0-250 95-250 227V0H804v-709c0-157-77-236-231-236-121 0-204 52-249 155V0H139v-1082h175l5 120c79-93 186-140 321-140 151 0 254 58 309 174 69-98 181-174 345-174 237 0 362 126 362 377V0h-185v-714c-2-159-67-231-231-231" id="bw"/><g id="E"><use transform="matrix(0.010416666666666668,0,0,0.010416666666666668,0,0)" xlink:href="#bw"/><use transform="matrix(0.010416666666666668,0,0,0.010416666666666668,18.697916666666668,0)" xlink:href="#ao"/><use transform="matrix(0.010416666666666668,0,0,0.010416666666666668,30.864583333333336,0)" xlink:href="#ai"/><use transform="matrix(0.010416666666666668,0,0,0.010416666666666668,42.63541666666667,0)" xlink:href="#aj"/><use transform="matrix(0.010416666666666668,0,0,0.010416666666666668,53.80208333333334,0)" xlink:href="#ar"/></g><path fill="#111827" d="M127-705c1-423 154-732 559-733 133-1 286 39 363 95l-54 129c-94-53-197-80-309-80-130 0-227 48-290 142s-95 243-95 447c0 392 128 588 385 588 109 0 220-33 334-100l51 129C960-11 832 27 686 27c-400 0-560-301-559-732" id="bx"/><path fill="#111827" d="M612-932c-94 1-239 48-305 86l-41-112c142-73 274-109 396-109 237 0 356 126 356 377 0 231-19 498 26 690H889c-13-42-19-98-19-168C781-38 661 27 508 27c-204 0-368-226-262-431 92-179 357-192 616-210 12-205-66-321-250-318zm-59 809c139-4 242-91 309-186v-189c-233 28-302 11-426 97-40 28-57 71-57 122-2 94 78 159 174 156" id="by"/><g id="F"><use transform="matrix(0.009114583333333334,0,0,0.009114583333333334,0,0)" xlink:href="#bx"/><use transform="matrix(0.009114583333333334,0,0,0.009114583333333334,11.201822916666668,0)" xlink:href="#by"/><use transform="matrix(0.009114583333333334,0,0,0.009114583333333334,22.403645833333336,0)" xlink:href="#bf"/><use transform="matrix(0.009114583333333334,0,0,0.009114583333333334,33.60546875,0)" xlink:href="#bk"/><use transform="matrix(0.009114583333333334,0,0,0.009114583333333334,44.80729166666667,0)" xlink:href="#bl"/></g><g id="G"><use transform="matrix(0.010416666666666668,0,0,0.010416666666666668,0,0)" xlink:href="#ag"/><use transform="matrix(0.010416666666666668,0,0,0.010416666666666668,5.177083333333334,0)" xlink:href="#ah"/></g><path fill="#0f0f0f" d="M1216-1011c-1 297-202 441-512 441H361V0H169v-1456h537c297-6 510 164 510 445zm-192 2c1-178-126-288-307-289H361v571h345c196 1 318-92 318-282" id="bz"/><g id="H"><use transform="matrix(0.010416666666666668,0,0,0.010416666666666668,0,0)" xlink:href="#bz"/><use transform="matrix(0.010416666666666668,0,0,0.010416666666666668,13.458333333333336,0)" xlink:href="#bv"/></g><g id="I"><use transform="matrix(0.010416666666666668,0,0,0.010416666666666668,0,0)" xlink:href="#ap"/><use transform="matrix(0.010416666666666668,0,0,0.010416666666666668,11.760416666666668,0)" xlink:href="#br"/><use transform="matrix(0.010416666666666668,0,0,0.010416666666666668,22.760416666666668,0)" xlink:href="#aj"/><use transform="matrix(0.010416666666666668,0,0,0.010416666666666668,34.06250000000001,0)" xlink:href="#ad"/><use transform="matrix(0.010416666666666668,0,0,0.010416666666666668,41.28125000000001,0)" xlink:href="#af"/><use transform="matrix(0.010416666666666668,0,0,0.010416666666666668,50.90625000000001,0)" xlink:href="#ag"/><use transform="matrix(0.010416666666666668,0,0,0.010416666666666668,56.08333333333334,0)" xlink:href="#ah"/></g><path fill="#111827" d="M612-1438c158 0 279 63 362 188s124 306 124 545c0 237-41 419-124 544S771 27 612 27c-157 0-277-62-360-187S127-467 127-705s41-420 124-545 203-188 361-188zm0 1321c208 0 312-196 312-588 0-393-104-589-312-589-101 0-175 53-232 152-102 177-101 699 0 874 57 98 130 151 232 151" id="bA"/><path fill="#111827" d="M627-1067c255 1 431 226 422 502v49H334c-8 217 149 407 354 407 95 0 192-17 293-51l27 125C916 6 809 27 686 27c-314 0-516-228-516-551 0-303 173-543 457-543zm252 424c8-145-114-289-246-289-166 0-282 128-289 289h535" id="bB"/><g id="J"><use transform="matrix(0.009114583333333334,0,0,0.009114583333333334,0,0)" xlink:href="#bA"/><use transform="matrix(0.009114583333333334,0,0,0.009114583333333334,11.201822916666668,0)" xlink:href="#bf"/><use transform="matrix(0.009114583333333334,0,0,0.009114583333333334,22.403645833333336,0)" xlink:href="#bh"/><use transform="matrix(0.009114583333333334,0,0,0.009114583333333334,33.60546875,0)" xlink:href="#bB"/><use transform="matrix(0.009114583333333334,0,0,0.009114583333333334,44.80729166666667,0)" xlink:href="#bf"/><use transform="matrix(0.009114583333333334,0,0,0.009114583333333334,56.00911458333334,0)" xlink:href="#bl"/></g><g id="K"><use transform="matrix(0.05,0,0,0.05,0,0)" xlink:href="#aw"/><use transform="matrix(0.05,0,0,0.05,3.95,0)" xlink:href="#ax"/></g><g id="L"><use transform="matrix(0.010416666666666668,0,0,0.010416666666666668,0,0)" xlink:href="#br"/><use transform="matrix(0.010416666666666668,0,0,0.010416666666666668,11.000000000000002,0)" xlink:href="#ae"/><use transform="matrix(0.010416666666666668,0,0,0.010416666666666668,17.968750000000004,0)" xlink:href="#ac"/><use transform="matrix(0.010416666666666668,0,0,0.010416666666666668,29.57291666666667,0)" xlink:href="#ae"/><use transform="matrix(0.010416666666666668,0,0,0.010416666666666668,36.54166666666667,0)" xlink:href="#ap"/><use transform="matrix(0.010416666666666668,0,0,0.010416666666666668,48.302083333333336,0)" xlink:href="#br"/></g><path d="M27 0v-27h64v-190l-56 39v-29l58-41h29v221h61V0H27" id="bC"/><g id="M"><use transform="matrix(0.05,0,0,0.05,0,0)" xlink:href="#aM"/><use transform="matrix(0.05,0,0,0.05,10.65,0)" xlink:href="#aN"/><use transform="matrix(0.05,0,0,0.05,22.65,0)" xlink:href="#aO"/><use transform="matrix(0.05,0,0,0.05,35.6,0)" xlink:href="#aP"/><use transform="matrix(0.05,0,0,0.05,48.550000000000004,0)" xlink:href="#aQ"/><use transform="matrix(0.05,0,0,0.05,61.5,0)" xlink:href="#aN"/><use transform="matrix(0.05,0,0,0.05,73.5,0)" xlink:href="#aO"/><use transform="matrix(0.05,0,0,0.05,86.45,0)" xlink:href="#aR"/><use transform="matrix(0.05,0,0,0.05,92.4,0)" xlink:href="#bC"/><use transform="matrix(0.05,0,0,0.05,102.4,0)" xlink:href="#aT"/><use transform="matrix(0.05,0,0,0.05,112.4,0)" xlink:href="#aU"/></g><g id="N"><use transform="matrix(0.010416666666666668,0,0,0.010416666666666668,0,0)" xlink:href="#ae"/><use transform="matrix(0.010416666666666668,0,0,0.010416666666666668,6.968750000000001,0)" xlink:href="#ag"/><use transform="matrix(0.010416666666666668,0,0,0.010416666666666668,12.145833333333334,0)" xlink:href="#bw"/><use transform="matrix(0.010416666666666668,0,0,0.010416666666666668,30.843750000000004,0)" xlink:href="#aj"/></g><g id="O"><use transform="matrix(0.010416666666666668,0,0,0.010416666666666668,0,0)" xlink:href="#ae"/><use transform="matrix(0.010416666666666668,0,0,0.010416666666666668,6.968750000000001,0)" xlink:href="#ag"/><use transform="matrix(0.010416666666666668,0,0,0.010416666666666668,12.145833333333334,0)" xlink:href="#bw"/><use transform="matrix(0.010416666666666668,0,0,0.010416666666666668,30.843750000000004,0)" xlink:href="#aj"/><use transform="matrix(0.010416666666666668,0,0,0.010416666666666668,42.145833333333336,0)" xlink:href="#br"/><use transform="matrix(0.010416666666666668,0,0,0.010416666666666668,53.145833333333336,0)" xlink:href="#ae"/><use transform="matrix(0.010416666666666668,0,0,0.010416666666666668,60.11458333333334,0)" xlink:href="#ac"/><use transform="matrix(0.010416666666666668,0,0,0.010416666666666668,71.71875,0)" xlink:href="#bw"/><use transform="matrix(0.010416666666666668,0,0,0.010416666666666668,90.41666666666667,0)" xlink:href="#an"/></g><path fill="#0f0f0f" d="M341 0H156v-1536h185V0" id="bD"/><g id="P"><use transform="matrix(0.010416666666666668,0,0,0.010416666666666668,0,0)" xlink:href="#ae"/><use transform="matrix(0.010416666666666668,0,0,0.010416666666666668,6.760416666666668,0)" xlink:href="#ao"/><use transform="matrix(0.010416666666666668,0,0,0.010416666666666668,18.927083333333336,0)" xlink:href="#ae"/><use transform="matrix(0.010416666666666668,0,0,0.010416666666666668,25.895833333333336,0)" xlink:href="#ac"/><use transform="matrix(0.010416666666666668,0,0,0.010416666666666668,37.5,0)" xlink:href="#bD"/><use transform="matrix(0.010416666666666668,0,0,0.010416666666666668,42.677083333333336,0)" xlink:href="#af"/><use transform="matrix(0.010416666666666668,0,0,0.010416666666666668,52.302083333333336,0)" xlink:href="#an"/><use transform="matrix(0.010416666666666668,0,0,0.010416666666666668,64.27083333333334,0)" xlink:href="#ad"/><use transform="matrix(0.010416666666666668,0,0,0.010416666666666668,71.48958333333334,0)" xlink:href="#ag"/><use transform="matrix(0.010416666666666668,0,0,0.010416666666666668,76.66666666666667,0)" xlink:href="#ab"/><use transform="matrix(0.010416666666666668,0,0,0.010416666666666668,87.83333333333334,0)" xlink:href="#aj"/></g><path fill="#333" d="M24 0v-248h195v40H76v63h132v40H76v65h150V0H24" id="bE"/><path fill="#333" d="M14-72v-43h91v43H14" id="bF"/><path fill="#333" d="M67-125c0 53 21 87 73 88 37 1 54-22 65-47l45 17C233-25 199 4 140 4 58 4 20-42 15-125 8-235 124-281 211-232c18 10 29 29 36 50l-46 12c-8-25-30-41-62-41-52 0-71 34-72 86" id="bG"/><path fill="#333" d="M110-194c64 0 96 36 96 99 0 64-35 99-97 99-61 0-95-36-95-99 0-62 34-99 96-99zm-1 164c35 0 45-28 45-65 0-40-10-65-43-65-34 0-45 26-45 65 0 36 10 65 43 65" id="bH"/><path fill="#333" d="M220-157c-53 9-28 100-34 157h-49v-107c1-27-5-49-29-50C55-147 81-57 75 0H25l-1-190h47c2 12-1 28 3 38 10-53 101-56 108 0 13-22 24-43 59-42 82 1 51 116 57 194h-49v-107c-1-25-5-48-29-50" id="bI"/><path fill="#333" d="M185-48c-13 30-37 53-82 52C43 2 14-33 14-96s30-98 90-98c62 0 83 45 84 108H66c0 31 8 55 39 56 18 0 30-7 34-22zm-45-69c5-46-57-63-70-21-2 6-4 13-4 21h74" id="bJ"/><path fill="#333" d="M135-150c-39-12-60 13-60 57V0H25l-1-190h47c2 13-1 29 3 40 6-28 27-53 61-41v41" id="bK"/><path fill="#333" d="M190-63c-7 42-38 67-86 67-59 0-84-38-90-98-12-110 154-137 174-36l-49 2c-2-19-15-32-35-32-30 0-35 28-38 64-6 74 65 87 74 30" id="bL"/><g id="Q"><use transform="matrix(0.17345679012345652,0,0,0.17345679012345652,0,0)" xlink:href="#bE"/><use transform="matrix(0.17345679012345652,0,0,0.17345679012345652,41.62962962962956,0)" xlink:href="#bF"/><use transform="matrix(0.17345679012345652,0,0,0.17345679012345652,62.27098765432089,0)" xlink:href="#bG"/><use transform="matrix(0.17345679012345652,0,0,0.17345679012345652,107.19629629629613,0)" xlink:href="#bH"/><use transform="matrix(0.17345679012345652,0,0,0.17345679012345652,145.1833333333331,0)" xlink:href="#bI"/><use transform="matrix(0.17345679012345652,0,0,0.17345679012345652,200.6895061728392,0)" xlink:href="#bI"/><use transform="matrix(0.17345679012345652,0,0,0.17345679012345652,256.1956790123453,0)" xlink:href="#bJ"/><use transform="matrix(0.17345679012345652,0,0,0.17345679012345652,290.8870370370366,0)" xlink:href="#bK"/><use transform="matrix(0.17345679012345652,0,0,0.17345679012345652,315.17098765432047,0)" xlink:href="#bL"/><use transform="matrix(0.17345679012345652,0,0,0.17345679012345652,349.86234567901175,0)" xlink:href="#bJ"/></g></defs></g></svg>